<?xml version="1.0" encoding="utf-8"?>
<!-- Generator: Adobe Illustrator 24.0.1, SVG Export Plug-In . SVG Version: 6.00 Build 0)  -->
<svg version="1.1" id="图层_1" xmlns="http://www.w3.org/2000/svg" xmlns:xlink="http://www.w3.org/1999/xlink" x="0px" y="0px" width="562.206px" height="510px"
	 viewBox="0 0 562.2 510" style="enable-background:new 0 0 562.2 510;" xml:space="preserve">
<style type="text/css">
	.st0{opacity:0.5;fill:#343434;enable-background:new    ;}
	.st1{opacity:0.6;fill-rule:evenodd;clip-rule:evenodd;fill:#45607B;enable-background:new    ;}
	.st2{opacity:0.6;clip-path:url(#SVGID_2_);}
	.st3{fill:none;stroke:#2EA7E0;stroke-width:0.5;stroke-miterlimit:10;}
	.st4{fill-rule:evenodd;clip-rule:evenodd;fill:#032037;}
	.st5{fill-rule:evenodd;clip-rule:evenodd;fill:#47637E;}
	.st6{fill:none;stroke:#4B6D8C;stroke-miterlimit:10;}
	.st7{enable-background:new    ;}
	.st8{fill:#8C7712;}
	.st9{fill:#C2A626;}
	.st10{fill:#83700E;}
	.st11{fill:#2A3D51;}
	.st12{fill:#2D4156;}
	.st13{clip-path:url(#SVGID_4_);enable-background:new    ;}
	.st14{fill:#2B3F54;}
	.st15{fill:#455D77;}
	.st16{clip-path:url(#SVGID_6_);enable-background:new    ;}
	.st17{fill:#30455A;}
	.st18{fill:#2F4358;}
	.st19{fill:#2E4257;}
	.st20{clip-path:url(#SVGID_8_);enable-background:new    ;}
	.st21{fill:#116431;}
	.st22{fill:#0B5E2C;}
	.st23{fill:#268947;}
	.st24{fill:#116531;}
	.st25{opacity:0.7;}
	.st26{fill:#2A944D;stroke:#FFFFFF;stroke-width:0.5;stroke-miterlimit:10;}
	.st27{fill:#0F5E32;}
	.st28{fill:#002149;}
	.st29{fill:#07396A;}
	.st30{fill:#00254E;}
	.st31{fill:#455E78;}
	.st32{fill:#A0473C;}
	.st33{fill:#752F27;}
	.st34{fill:#6E2B23;}
	.st35{clip-path:url(#SVGID_10_);enable-background:new    ;}
	.st36{fill:#455D76;}
	.st37{clip-path:url(#SVGID_12_);enable-background:new    ;}
	.st38{fill:#942023;}
	.st39{opacity:0.7;fill:#AE4E42;stroke:#FFFFFF;stroke-width:0.5;stroke-miterlimit:10;enable-background:new    ;}
	.st40{fill-rule:evenodd;clip-rule:evenodd;fill:#061A2E;stroke:#486A88;stroke-miterlimit:10;}
	.st41{fill:#5E5E5E;}
	.st42{fill:#414242;}
	.st43{fill:#3F4041;}
	.st44{fill:#CC6600;}
	.st45{fill:#B55600;}
	.st46{fill:#A04902;}
	.st47{fill:#FFFFFF;}
	.st48{clip-path:url(#SVGID_14_);enable-background:new    ;}
	.st49{fill:#3A5B7C;}
	.st50{fill:#3C5E7F;}
	.st51{fill:#3E6183;}
	.st52{fill:#406486;}
	.st53{fill:#42678A;}
	.st54{fill:#5D95BF;}
	.st55{clip-path:url(#SVGID_16_);enable-background:new    ;}
	.st56{fill:#07396A;stroke:#FFFFFF;stroke-width:0.5;stroke-miterlimit:10;}
	.st57{fill-rule:evenodd;clip-rule:evenodd;fill:#F29518;}
</style>
<g>
	<path class="st0" d="M249.6,107.3c-1.1-1.4-2.7-1-4.3-0.2l-140.2,72.4c-1.6,0.8-2.7,1.8-1.7,3.3c1,1.5,1.9,2.6,1.9,2.6l0.2-0.1
		l103.4,11.6l10.9-5.5l31.6-81.3l0.2-0.1C251.6,109.9,250.8,108.7,249.6,107.3z"/>
	<polygon class="st1" points="460.8,321.8 251.7,432.6 189.9,422.9 81.1,261.6 97.1,214.9 301.8,109.2 334.3,116.1 467.7,290.3 	"/>
	<g>
		<g>
			<g>
				<defs>
					<path id="SVGID_1_" d="M322.7,158.2c-25.9,1.2-65.8-10.7-65.8-10.7l-110.4,62.7c0,0-22.2,10.3-21.6,17.9
						c1.9,23.2-7.4,44.4-23.7,59.2l72.5,104.3c10.4-5.3,22.3-8.7,35.1-9.3c30.1-1.5,66.4,4.1,82.1,25.6l125.7-64.4
						c-4.5-8.7-7.3-18.3-7.8-28.5c-1.4-24.7,10.2-47.4,29.3-62.3l-81.3-103.1C346.5,154.6,335,157.7,322.7,158.2z"/>
				</defs>
				<clipPath id="SVGID_2_">
					<use xlink:href="#SVGID_1_"  style="overflow:visible;"/>
				</clipPath>
				<g class="st2">
					<polygon class="st3" points="482.9,309.5 214.5,450.5 64.8,234.9 318.2,100.8 					"/>
					<polygon class="st3" points="317.1,104.8 477.5,308.5 215.8,446 69.6,235.9 					"/>
					<polygon class="st3" points="316,108.8 472.1,307.4 217,441.5 74.4,236.8 					"/>
					<polygon class="st3" points="314.8,112.9 466.7,306.3 218.3,437 79.3,237.8 					"/>
					<polygon class="st3" points="461.3,305.2 219.5,432.6 84.1,238.8 313.7,116.9 					"/>
				</g>
			</g>
		</g>
	</g>
	<g>
		<path class="st4" d="M58.3,220.7c4.9-12.7,4.7-38.8,36.7-49.1c32.1-10.3,58.2-6.4,94,8c12.6,5.1,24,14.6,33.5,25.6
			c18.6,21.4,12.1,52.5,12.1,52.5s-10.5,29.6-38.5,41.9c-16.8,7.4-35,12.3-50.5,10.9c-40.8-3.7-72-13.8-90.5-34.4
			C40.1,259.4,53.5,233.4,58.3,220.7z"/>
		<g>
			<g>
				<path class="st5" d="M94.7,269.6l6.3,14.6l70.9,11.9l36.9,0.4l28.4-18.5l3.6-12.5l-136-27.6L94.7,269.6z M231.8,217.5
					l-31.6-14.4l-69.1-14.3l-13.6,9.2l-9.9,31.1l135.8,27.3l3.5-12.4L231.8,217.5z"/>
			</g>
			<g>
				<path class="st6" d="M94.7,269.6l6.3,14.6l70.9,11.9l36.9,0.4l28.4-18.5l3.6-12.5l-136-27.6L94.7,269.6z M231.8,217.5
					l-31.6-14.4l-69.1-14.3l-13.6,9.2l-9.9,31.1l135.8,27.3l3.5-12.4L231.8,217.5z"/>
			</g>
		</g>
		<g>
			<g class="st7">
				<g>
					<polygon class="st8" points="187.3,251 187.3,255.2 180,279.2 180,275 					"/>
				</g>
				<g>
					<polygon class="st9" points="187.6,251.5 190.4,252 183.3,276 180.5,275.4 					"/>
				</g>
				<g>
					<polygon class="st8" points="190.4,252 190.4,256.2 183.3,280.2 183.3,276 					"/>
				</g>
				<g>
					<polygon class="st10" points="183.3,276 183.3,280.2 180.5,279.6 180.5,275.4 					"/>
				</g>
				<g>
					<polygon class="st9" points="109.9,235.5 187.3,251 180,275 166.2,280.3 99.9,266.5 					"/>
				</g>
				<g>
					<polygon class="st10" points="180,275 180,279.2 166.2,284.4 166.2,280.3 					"/>
				</g>
				<g>
					<polygon class="st10" points="166.2,280.3 166.2,284.4 99.9,270.7 99.9,266.5 					"/>
				</g>
			</g>
		</g>
		<g class="st7">
			<g>
				<g class="st7">
					<g>
						<polygon class="st11" points="91.2,221 91.2,225.2 83.2,223.6 83.2,219.4 						"/>
					</g>
					<g>
						<polygon class="st12" points="115.8,194.1 115.8,198.3 93.4,268.6 93.4,264.4 						"/>
					</g>
					<g class="st7">
						<g>
							<defs>
								<path id="SVGID_3_" d="M76.8,256.1v-4.2c0,6.5,1,12.3,2.8,16.8v4.2C77.8,268.4,76.8,262.6,76.8,256.1z"/>
							</defs>
							<clipPath id="SVGID_4_">
								<use xlink:href="#SVGID_3_"  style="overflow:visible;"/>
							</clipPath>
							<g class="st13">
								<path class="st14" d="M79.6,268.7v4.2c-1.9-4.5-2.8-10.2-2.8-16.8v-4.2C76.8,258.4,77.8,264.2,79.6,268.7"/>
							</g>
						</g>
					</g>
					<g>
						<path class="st15" d="M106.3,185.5l9.5,8.6l-22.4,70.3l-13.8,4.2c-3.7-9-3.9-23,0.1-38.4l7.9,1.6l3.5-10.9l-7.9-1.6
							C89,204.2,97.6,191.9,106.3,185.5z"/>
					</g>
					<g>
						<polygon class="st11" points="93.4,264.4 93.4,268.6 79.6,272.9 79.6,268.7 						"/>
					</g>
				</g>
			</g>
		</g>
		<g>
			<g class="st7">
				<g>
					<polygon class="st9" points="122,196.8 187.5,209.6 196.7,219.3 189.7,243 112.5,227.3 					"/>
				</g>
				<g>
					<polygon class="st8" points="196.7,219.3 196.7,223.5 189.7,247.1 189.7,243 					"/>
				</g>
				<g>
					<polygon class="st10" points="189.7,243 189.7,247.1 112.5,231.5 112.5,227.3 					"/>
				</g>
				<g>
					<polygon class="st9" points="197.2,219.4 200,220 192.9,243.6 190.1,243 					"/>
				</g>
				<g>
					<polygon class="st8" points="200,220 200,224.2 192.9,247.8 192.9,243.6 					"/>
				</g>
				<g>
					<polygon class="st10" points="192.9,243.6 192.9,247.8 190.1,247.2 190.1,243 					"/>
				</g>
			</g>
		</g>
	</g>
	<g>
		<path class="st4" d="M488.9,313.6c-3.5,14.3,3.4,49.1-42.2,58.8c-34.5,10.4-63,1-100.9-18.1c-12.8-6.5-24.2-17.8-33.4-30.2
			c-17.3-23.3-10.7-54.3-10.7-54.3s9.9-28.2,35.1-39.5c15.2-6.8,31.7-11.3,46.3-10.1c39.2,3.4,77.2,13.2,98.8,34
			C506.1,277.5,492.3,299.6,488.9,313.6z"/>
		<g>
			<g>
				<path class="st5" d="M449.2,247.7l-76.6-11.6l-38.1,0l-28.4,18.5l-3.4,12.5l147,29.5l8-33.8L449.2,247.7z M296.8,289l16.2,28.1
					l34.2,16.1l77.5,17.5l14.7-10.1l8.1-34.5l-147.2-29.8L296.8,289z"/>
			</g>
			<g>
				<path class="st6" d="M449.2,247.7l-76.6-11.6l-38.1,0l-28.4,18.5l-3.4,12.5l147,29.5l8-33.8L449.2,247.7z M296.8,289l16.2,28.1
					l34.2,16.1l77.5,17.5l14.7-10.1l8.1-34.5l-147.2-29.8L296.8,289z"/>
			</g>
		</g>
		<g class="st7">
			<g>
				<g class="st7">
					<g class="st7">
						<g>
							<defs>
								<path id="SVGID_5_" d="M479.9,285.7v4.2c0,4.8-0.4,9.9-1.3,15.1v-4.2C479.5,295.6,479.9,290.5,479.9,285.7z"/>
							</defs>
							<clipPath id="SVGID_6_">
								<use xlink:href="#SVGID_5_"  style="overflow:visible;"/>
							</clipPath>
							<g class="st16">
								<path class="st17" d="M479.9,285.7v4.2c0,4.4-0.3,9-1.1,13.8v-4.2C479.5,294.8,479.9,290.1,479.9,285.7"/>
								<path class="st18" d="M478.8,299.6v4.2c-0.1,0.4-0.1,0.9-0.2,1.3v-4.2C478.7,300.4,478.7,300,478.8,299.6"/>
							</g>
						</g>
					</g>
					<g>
						<polygon class="st11" points="478.6,300.9 478.6,305 469.4,303.2 469.4,299 						"/>
					</g>
					<g>
						<polygon class="st19" points="469.4,299 469.4,303.2 466.6,315.2 466.6,311 						"/>
					</g>
					<g>
						<path class="st15" d="M474.3,259.6c5.2,9.5,7,24.6,4.3,41.3l-9.2-1.8l-2.8,12l9.3,1.9c-4.9,17-13.4,30.8-22.8,37.9l-11.8-10.1
							l18.1-76.6L474.3,259.6z"/>
					</g>
					<g class="st7">
						<g>
							<defs>
								<path id="SVGID_7_" d="M475.9,312.9v4.2c-4.9,17-13.4,30.8-22.8,37.9v-4.2C462.5,343.7,471,329.9,475.9,312.9z"/>
							</defs>
							<clipPath id="SVGID_8_">
								<use xlink:href="#SVGID_7_"  style="overflow:visible;"/>
							</clipPath>
							<g class="st20">
								<path class="st18" d="M475.9,312.9v4.2c-0.4,1.4-0.8,2.7-1.3,4.1V317C475.1,315.6,475.5,314.3,475.9,312.9"/>
								<path class="st12" d="M474.6,317v4.2c-2,6.1-4.5,11.7-7.3,16.6v-4.2C470.1,328.6,472.6,323,474.6,317"/>
								<path class="st14" d="M467.3,333.6v4.2c-4.2,7.4-9.1,13.3-14.2,17.2v-4.2C458.2,346.9,463.1,340.9,467.3,333.6"/>
							</g>
						</g>
					</g>
					<g>
						<polygon class="st11" points="453.1,350.8 453.1,354.9 441.3,344.9 441.3,340.7 						"/>
					</g>
				</g>
			</g>
		</g>
		<g>
			<g class="st7">
				<g>
					<polygon class="st21" points="365.5,251.5 365.5,255.7 359.4,279 359.4,274.8 					"/>
				</g>
				<g>
					<polygon class="st22" points="361.1,275.2 361.1,279.4 359.4,279 359.4,274.8 					"/>
				</g>
				<g>
					<polygon class="st22" points="360.8,276.4 360.8,280.6 355.6,279.6 355.6,275.4 					"/>
				</g>
				<g>
					<polygon class="st23" points="361.9,250.8 365.5,251.5 359.4,274.8 361.1,275.2 360.8,276.4 355.6,275.4 					"/>
				</g>
				<g>
					<polygon class="st21" points="361.1,275.2 361.1,279.4 360.8,280.6 360.8,276.4 					"/>
				</g>
				<g>
					<polygon class="st21" points="452.7,258.7 452.7,262.9 444.7,295.9 444.7,291.8 					"/>
				</g>
				<g>
					<polygon class="st22" points="444.7,291.8 444.7,295.9 361.1,279.4 361.1,275.2 					"/>
				</g>
				<g>
					<polygon class="st23" points="380.1,244.8 452.7,258.7 444.7,291.8 361.1,275.2 359.4,274.8 365.5,251.5 365.9,250.2 					"/>
				</g>
			</g>
		</g>
		<g>
			<g class="st7">
				<g>
					<polygon class="st23" points="353.1,285.2 356,285.8 349.6,310.8 346.6,310.2 					"/>
				</g>
				<g>
					<polygon class="st21" points="356,285.8 356,290 349.6,315 349.6,310.8 					"/>
				</g>
				<g>
					<polygon class="st22" points="349.6,310.8 349.6,315 346.6,314.3 346.6,310.2 					"/>
				</g>
				<g>
					<polygon class="st22" points="360.4,322 360.4,326.2 350.1,315.5 350.1,311.4 					"/>
				</g>
				<g>
					<polygon class="st23" points="356.4,286.3 441.8,303.8 433.9,337.5 360.4,322 350.1,311.4 					"/>
				</g>
				<g>
					<polygon class="st24" points="441.8,303.8 441.8,307.9 433.9,341.7 433.9,337.5 					"/>
				</g>
				<g>
					<polygon class="st22" points="433.9,337.5 433.9,341.7 360.4,326.2 360.4,322 					"/>
				</g>
			</g>
		</g>
		<g class="st25">
			<polygon class="st26" points="413.5,295.4 329.1,278.2 322.6,303 332.8,313.6 405.4,328.9 			"/>
		</g>
		<g class="st25">
			<polygon class="st27" points="367.4,286 329.1,278.2 322.6,303 332.8,313.6 359.1,319.1 			"/>
		</g>
	</g>
	<g>
		<path class="st4" d="M322.3,90.5c14.9,3.2,46.4-1.8,58.9,25.1c12.8,27.5,8.6,50.3-9.6,81.5c-6.3,10.8-19.1,20.5-32.4,28.4
			c-25.3,15-60.4,8.6-60.4,8.6s-32-9.3-44.6-31.8c-7.5-13.3-13.4-30.6-11.8-42.8c1.6-28.6,10.3-53,38-70.3
			C276.7,75.5,307.7,87.4,322.3,90.5z"/>
		<g>
			<g>
				<path class="st5" d="M353.7,135.9l-38.6-6.7l-31.5,114l15,2.9l32.6-12.9l17.5-27.1l16.9-59.2L353.7,135.9z M266.6,120.8l-17,5.9
					l-13.3,58l-0.2,30.2l21.8,23.2l14.8,2.9l31.7-113.7L266.6,120.8z"/>
			</g>
			<g>
				<path class="st6" d="M353.7,135.9l-38.6-6.7l-31.5,114l15,2.9l32.6-12.9l17.5-27.1l16.9-59.2L353.7,135.9z M266.6,120.8l-17,5.9
					l-13.3,58l-0.2,30.2l21.8,23.2l14.8,2.9l31.7-113.7L266.6,120.8z"/>
			</g>
		</g>
		<g>
			<g class="st7">
				<g>
					<polygon class="st28" points="256,188.3 256,192.5 249.7,181.3 249.7,177.1 					"/>
				</g>
				<g>
					<polygon class="st29" points="265.3,122.5 302.5,129.1 284.6,193.7 256,188.3 249.7,177.1 					"/>
				</g>
				<g>
					<polygon class="st30" points="302.5,129.1 302.5,133.2 284.6,197.9 284.6,193.7 					"/>
				</g>
				<g>
					<polygon class="st28" points="284.6,193.7 284.6,197.9 256,192.5 256,188.3 					"/>
				</g>
				<g>
					<polygon class="st29" points="256.5,188.8 285,194.2 284.4,196.5 255.9,191.2 					"/>
				</g>
				<g>
					<polygon class="st30" points="285,194.2 285,198.4 284.4,200.7 284.4,196.5 					"/>
				</g>
				<g>
					<polygon class="st28" points="284.4,196.5 284.4,200.7 255.9,195.3 255.9,191.2 					"/>
				</g>
			</g>
		</g>
		<g class="st7">
			<g>
				<g class="st7">
					<g>
						<polygon class="st11" points="368,124.7 365.4,127.3 354.7,135.7 357.3,133.1 						"/>
					</g>
					<g>
						<polygon class="st11" points="323.6,114 321,116.6 322.8,109.9 325.4,107.3 						"/>
					</g>
					<g>
						<path class="st31" d="M292.6,103.8c6.1,0,12.7,0.4,19.5,1.3l-1.8,6.6l13.3,2.3l1.8-6.7c18.9,3.9,34.4,10.4,42.6,17.4
							l-10.7,8.4l-85.8-14.8l-5.1-11C273.1,105,282.2,103.8,292.6,103.8z"/>
					</g>
					<g>
						<polygon class="st11" points="357.3,133.1 354.7,135.7 268.9,120.9 271.6,118.3 						"/>
					</g>
					<g>
						<polygon class="st11" points="271.6,118.3 268.9,120.9 263.8,109.9 266.4,107.3 						"/>
					</g>
				</g>
			</g>
		</g>
		<g>
			<g class="st7">
				<g>
					<polygon class="st30" points="350.1,137.3 350.1,141.5 335.1,197.1 335.1,192.9 					"/>
				</g>
				<g>
					<polygon class="st29" points="312.2,130.8 350.1,137.3 335.1,192.9 323.1,200.9 294.1,195.5 					"/>
				</g>
				<g>
					<polygon class="st28" points="335.1,192.9 335.1,197.1 323.1,205.1 323.1,200.9 					"/>
				</g>
				<g>
					<polygon class="st28" points="323.1,200.9 323.1,205.1 294.1,199.7 294.1,195.5 					"/>
				</g>
				<g>
					<polygon class="st29" points="294.6,196 323.5,201.4 322.9,203.8 293.9,198.4 					"/>
				</g>
				<g>
					<polygon class="st30" points="323.5,201.4 323.5,205.6 322.9,208 322.9,203.8 					"/>
				</g>
				<g>
					<polygon class="st28" points="322.9,203.8 322.9,208 293.9,202.6 293.9,198.4 					"/>
				</g>
			</g>
		</g>
	</g>
	<g>
		<path class="st4" d="M211.9,451.3c-15.4-4.7-45.4,1.1-55.6-31.4c-10-31.7-5-56.5,14.8-89.1c6.7-11.1,18.4-20.8,31.4-28.6
			c24.7-14.9,58.3-8.4,58.3-8.4s31.7,9.7,44.9,33.7c8.1,14.6,16.6,30.6,15.3,44.5c-3.5,37.6-2.7,59.7-26.7,78.5
			C267.8,471.3,227.2,456,211.9,451.3z"/>
		<g>
			<g>
				<path class="st5" d="M245.8,287.6l-32.5,12.8l-18.2,27.7l-19.6,63.1l11.4,12.8l39.7,9.3l34.1-122.6L245.8,287.6z M309.8,320.8
					l-22.9-24.7l-15.1-3.1l-33.9,122.9l40.6,9.5l18.5-6.1l13.4-65.6L309.8,320.8z"/>
			</g>
			<g>
				<path class="st6" d="M245.8,287.6l-32.5,12.8l-18.2,27.7l-19.6,63.1l11.4,12.8l39.7,9.3l34.1-122.6L245.8,287.6z M309.8,320.8
					l-22.9-24.7l-15.1-3.1l-33.9,122.9l40.6,9.5l18.5-6.1l13.4-65.6L309.8,320.8z"/>
			</g>
		</g>
		<g>
			<g>
				<g class="st7">
					<g>
						<polygon class="st32" points="258.6,335.4 288.2,341.9 287.5,344.4 257.9,337.9 						"/>
					</g>
					<g>
						<polygon class="st33" points="288.2,341.9 288.2,346 287.5,348.5 287.5,344.4 						"/>
					</g>
					<g>
						<polygon class="st34" points="287.5,344.4 287.5,348.5 257.9,342.1 257.9,337.9 						"/>
					</g>
					<g>
						<polygon class="st32" points="257.9,338.3 287.6,344.8 294.4,357.2 278.1,418.8 238.3,409.5 						"/>
					</g>
					<g>
						<polygon class="st33" points="294.4,357.2 294.4,361.4 278.1,423 278.1,418.8 						"/>
					</g>
					<g>
						<polygon class="st34" points="278.1,418.8 278.1,423 238.3,413.7 238.3,409.5 						"/>
					</g>
				</g>
			</g>
		</g>
		<g>
			<g class="st7">
				<g>
					<polygon class="st34" points="217.7,329.2 217.7,333.4 217.1,333.8 217.1,329.6 					"/>
				</g>
				<g>
					<polygon class="st34" points="246.9,335.5 246.9,339.7 217.7,333.4 217.7,329.2 					"/>
				</g>
				<g>
					<polygon class="st33" points="246.9,335.5 246.9,339.7 246.8,340.3 246.8,336.1 					"/>
				</g>
				<g>
					<polygon class="st32" points="217.7,327.1 248,333.7 247.3,336.2 246.8,336.1 246.9,335.5 217.7,329.2 217.1,329.6 					"/>
				</g>
				<g>
					<polygon class="st33" points="248,333.7 248,337.9 247.3,340.4 247.3,336.2 					"/>
				</g>
				<g>
					<polygon class="st34" points="247.3,336.2 247.3,340.4 246.8,340.3 246.8,336.1 					"/>
				</g>
				<g>
					<polygon class="st32" points="217.7,329.2 246.9,335.5 246.8,336.1 227,406.4 188,397.5 205.5,337.4 217.1,329.6 					"/>
				</g>
				<g>
					<polygon class="st33" points="246.8,336.1 246.8,340.3 227,410.6 227,406.4 					"/>
				</g>
				<g>
					<polygon class="st34" points="227,406.4 227,410.6 188,401.7 188,397.5 					"/>
				</g>
			</g>
		</g>
		<g>
			<g class="st7">
				<g>
					<polygon class="st11" points="232.7,431.3 232.7,433.4 218.6,430.1 218.6,428 					"/>
				</g>
				<g>
					<polygon class="st19" points="218.6,428 218.6,430.1 216.5,437.7 216.5,435.6 					"/>
				</g>
				<g class="st7">
					<g>
						<defs>
							<path id="SVGID_9_" d="M216.5,435.6v2.1c-19.6-5.5-35.4-13.7-43.5-22v-2.1C181.1,421.9,196.8,430.1,216.5,435.6z"/>
						</defs>
						<clipPath id="SVGID_10_">
							<use xlink:href="#SVGID_9_"  style="overflow:visible;"/>
						</clipPath>
						<g class="st35">
							<path class="st14" d="M216.5,435.6v2.1c-19.6-5.5-35.4-13.7-43.5-22v-2.1C181.1,421.9,196.8,430.1,216.5,435.6"/>
						</g>
					</g>
				</g>
				<g>
					<path class="st36" d="M184.4,404.5l90,21l5.6,13.3c-5.9,1.9-13.5,2.9-22.2,2.9c-8.3,0-17.6-0.9-27.3-2.7l2.1-7.6l-14.1-3.3
						l-2.1,7.7c-19.6-5.5-35.4-13.7-43.5-22L184.4,404.5z"/>
				</g>
				<g class="st7">
					<g>
						<defs>
							<path id="SVGID_11_" d="M280.1,438.8v2.1c-5.9,1.9-13.5,2.9-22.2,2.9c-8.3,0-17.6-0.9-27.3-2.7v-2.1c9.7,1.8,19,2.7,27.3,2.7
								C266.6,441.7,274.2,440.7,280.1,438.8z"/>
						</defs>
						<clipPath id="SVGID_12_">
							<use xlink:href="#SVGID_11_"  style="overflow:visible;"/>
						</clipPath>
						<g class="st37">
							<path class="st14" d="M280.1,438.8v2.1c-5.9,1.9-13.5,2.9-22.2,2.9c-8.3,0-17.6-0.9-27.3-2.7v-2.1c9.7,1.8,19,2.7,27.3,2.7
								C266.6,441.7,274.2,440.7,280.1,438.8"/>
						</g>
					</g>
				</g>
			</g>
		</g>
		<polygon class="st38" points="231.8,388.9 226.9,406.5 209.6,402.5 214.6,385 		"/>
		<polygon class="st39" points="241.6,385.7 261,315.2 290.5,321.6 297.3,333.9 281.1,394.8 		"/>
	</g>
	<g>
		<g>
			<path class="st40" d="M263.5,241.9l-24.6-33.1l-13.5,7l24.5,33.2C253.6,245.7,258.3,243.2,263.5,241.9z"/>
			<path class="st40" d="M242.7,273.7l-40.2,20.7l8.3,11.8l40.2-20.7C247.1,282.2,244.2,278.2,242.7,273.7z"/>
			<path class="st40" d="M281.5,292l25.5,34.6l14.1-7.3l-25.7-34.5C291.7,288.2,286.8,290.7,281.5,292z"/>
			<path class="st40" d="M293.4,247.6c4.1,3.1,7.2,7.1,8.9,11.5l40.2-20.7l-8.9-11.5L293.4,247.6z"/>
		</g>
		<g>
			<g class="st7">
				<g>
					<polygon class="st41" points="201.8,291 210.6,302.5 195.5,324.7 172.4,293.9 					"/>
				</g>
				<g>
					<polygon class="st42" points="210.6,302.5 210.8,308.5 195.7,330.7 195.5,324.7 					"/>
				</g>
				<g>
					<polygon class="st43" points="195.5,324.7 195.7,330.7 172.7,299.9 172.4,293.9 					"/>
				</g>
			</g>
		</g>
		<g>
			<g class="st7">
				<g>
					<polygon class="st41" points="348.1,203.9 373.2,233.6 342.9,236.8 333.6,225.6 					"/>
				</g>
				<g>
					<polygon class="st43" points="373.2,233.6 373.3,237.8 343,240.9 342.9,236.8 					"/>
				</g>
				<g>
					<polygon class="st43" points="342.9,236.8 343,240.9 333.7,229.8 333.6,225.6 					"/>
				</g>
			</g>
		</g>
		<g>
			<g class="st7">
				<g>
					<polygon class="st44" points="236,182.2 239.2,206.1 225.9,213.5 200.8,201.9 					"/>
				</g>
				<g>
					<polygon class="st45" points="239.2,206.1 239.3,210.3 226,217.7 225.9,213.5 					"/>
				</g>
				<g>
					<polygon class="st46" points="225.9,213.5 226,217.7 200.9,206.1 200.8,201.9 					"/>
				</g>
			</g>
		</g>
		<g>
			<g class="st7">
				<g>
					<polygon class="st41" points="320.4,317.5 347.7,330.5 310.4,351.3 306.6,325.2 					"/>
				</g>
				<g>
					<polygon class="st43" points="347.7,330.5 347.9,334.7 310.6,355.4 310.4,351.3 					"/>
				</g>
				<g>
					<polygon class="st43" points="310.4,351.3 310.6,355.4 306.7,329.4 306.6,325.2 					"/>
				</g>
			</g>
		</g>
		<g>
			<path class="st47" d="M214.8,202.5c-0.2,0.1-0.4,0.2-0.6,0.4l-0.5-0.9c0.2-0.1,0.4-0.2,0.6-0.3l1.6-0.9l-0.6-1
				c-0.4-0.6-0.7-1.2-0.9-1.3c0.4-0.2,0.7-0.3,1-0.5c0.2-0.1,0.3-0.1,0.2,0.1c-0.1,0.1,0,0.3,0,0.4l3.5,6c0.3,0.5,0.6,1,1,1.5
				l-0.9,0.5c-0.2-0.5-0.5-1-0.9-1.7c-0.6,0.8-1,1.5-1.4,2c-0.3-0.2-0.8-0.5-1.1-0.7c0.7-0.6,1.2-1,2.1-2.1l-1.5-2.6L214.8,202.5z
				 M220.5,197.2c0.3,0.2,0.8,0.4,1.1,0.4c0.2,0,0.2,0.1,0,0.2c-0.1,0.1-0.9,1.3-1.8,2.9l1.6,2.7c0.3,0.4,0.5,0.5,1.2,0
				c0.9-0.5,1-0.7,0.3-2c0.6,0.2,1,0.1,1.3,0c0.4,1.8,0.2,2-1.2,2.9c-1.5,0.9-1.8,0.8-2.3-0.1l-3.3-5.8c-0.3-0.5-0.6-0.9-0.7-1.1
				c0.3-0.2,0.7-0.3,0.9-0.5c0.2-0.1,0.3-0.1,0.2,0.2c-0.1,0.1,0,0.2,0,0.3l1.6,2.8C220,198.7,220.4,198,220.5,197.2z"/>
			<path class="st47" d="M229.9,189.9l0.5,0.9c-0.5,0.2-1.4,0.7-2.4,1.3l-3.8,2.2c2.5,4.1,2.8,5.5,2.8,7.6c-0.4,0-0.8,0.1-1.1,0.2
				c0.3-2.1-0.3-3.9-3.1-8.1c0.5-0.2,1.4-0.7,3.6-2S229.4,190.3,229.9,189.9z M231.8,198c0.4,0.7,0.4,1.2-1.1,2.2
				c-0.1-0.3-0.4-0.6-0.9-0.7c1.2-0.5,1.3-0.8,1.1-1.2l-2-3.5c-1.3,0.8-2.2,1.3-2.9,1.8l-0.5-0.9c0.8-0.4,1.7-0.8,3-1.6
				s2.2-1.3,2.9-1.8l0.5,0.9c-0.6,0.3-1.3,0.7-2.3,1.2L231.8,198z"/>
		</g>
	</g>
	<g class="st25">
		<g>
			<polygon class="st26" points="416.2,284 331.9,267.3 338.5,242.8 352.6,237.4 424.4,251.2 			"/>
		</g>
	</g>
	<g>
		<g class="st7">
			<g class="st7">
				<g>
					<defs>
						<path id="SVGID_13_" d="M300.3,264l0.1,4.2c-0.4-10.6-9.4-19.8-22.3-21.9c-2.1-0.3-4.3-0.5-6.4-0.4
							c-12.4,0.4-23.4,7.9-26,18.5c-0.4,1.8-0.6,3.6-0.6,5.4l-0.1-4.2c-0.1-1.8,0.1-3.6,0.6-5.4c2.6-10.6,13.6-18.1,26-18.5
							c2.1-0.1,4.2,0.1,6.4,0.4C290.8,244.2,299.9,253.5,300.3,264z"/>
					</defs>
					<clipPath id="SVGID_14_">
						<use xlink:href="#SVGID_13_"  style="overflow:visible;"/>
					</clipPath>
					<g class="st48">
						<path class="st49" d="M300.3,264l0.1,4.2c-0.4-10.6-9.4-19.8-22.3-21.9c-2.1-0.3-4.3-0.5-6.4-0.4
							c-10.2,0.4-19.4,5.4-23.8,13.1l-0.1-4.2c4.4-7.7,13.6-12.8,23.8-13.1c2.1-0.1,4.2,0.1,6.4,0.4
							C290.8,244.2,299.9,253.5,300.3,264"/>
						<path class="st50" d="M247.7,254.8l0.1,4.2c-0.7,1.2-1.3,2.4-1.7,3.8l-0.1-4.2C246.5,257.3,247.1,256,247.7,254.8"/>
						<path class="st51" d="M246,258.6l0.1,4.2c-0.2,0.5-0.3,1.1-0.5,1.6c-0.1,0.6-0.3,1.2-0.3,1.7l-0.1-4.2
							c0.1-0.6,0.2-1.2,0.3-1.7C245.7,259.7,245.9,259.1,246,258.6"/>
						<path class="st52" d="M245.2,261.9l0.1,4.2c-0.2,1.1-0.2,2.2-0.2,3.3l-0.1-4.2C245,264.2,245.1,263,245.2,261.9"/>
						<path class="st53" d="M245,265.3l0.1,4.2c0,0.1,0,0.2,0,0.3l-0.1-4.2C245,265.5,245,265.4,245,265.3"/>
					</g>
				</g>
			</g>
			<g>
				<path class="st54" d="M281.9,225.7c25.9,4.1,43,25,38,46.8c-4.3,18.7-23.4,31.8-45.1,32.6c-3.9,0.1-7.8-0.1-11.8-0.8
					c-26-4.5-42.4-25.8-37-47.3c4.6-18.3,23.6-31.2,45-31.9C274.6,224.9,278.2,225.1,281.9,225.7z M299.8,269.2
					c2.9-12.6-6.9-24.7-21.8-27.1c-2.1-0.3-4.3-0.5-6.4-0.4c-12.4,0.4-23.4,7.9-26,18.5c-3.1,12.5,6.5,24.7,21.5,27.2
					c2.3,0.4,4.5,0.5,6.7,0.5C286.2,287.5,297.2,279.9,299.8,269.2"/>
			</g>
			<g class="st7">
				<g>
					<defs>
						<path id="SVGID_15_" d="M320.7,263.7c0,1.4,0.1,2.8,0.1,4.2c0.1,2.9-0.2,5.8-0.9,8.8c-4.3,18.7-23.4,31.8-45.1,32.6
							c-3.9,0.1-7.8-0.1-11.8-0.8c-22.2-3.9-37.4-19.9-38-37.9c0-0.1,0-0.1,0-0.2c0-0.6,0-1.3-0.1-1.9c0-0.7,0-1.4-0.1-2.1
							c0.6,18,15.8,34,38,37.9c4,0.7,7.9,0.9,11.8,0.8c21.7-0.8,40.8-13.9,45.1-32.6C320.6,269.6,320.8,266.6,320.7,263.7z"/>
					</defs>
					<clipPath id="SVGID_16_">
						<use xlink:href="#SVGID_15_"  style="overflow:visible;"/>
					</clipPath>
					<g class="st55">
						<path class="st53" d="M320.7,263.7l0.1,4.2c0,0.2,0,0.4,0,0.5l-0.1-4.2C320.8,264.1,320.8,263.9,320.7,263.7"/>
						<path class="st52" d="M320.8,264.3l0.1,4.2c0,1.9-0.1,3.8-0.4,5.8l-0.1-4.2C320.7,268.1,320.8,266.2,320.8,264.3"/>
						<path class="st51" d="M320.4,270l0.1,4.2c-0.1,0.8-0.3,1.6-0.5,2.5c-0.3,1.1-0.6,2.3-1,3.4l-0.1-4.2c0.4-1.1,0.7-2.2,1-3.4
							C320.1,271.7,320.2,270.9,320.4,270"/>
						<path class="st50" d="M318.9,275.9l0.1,4.2c-0.8,2.3-1.7,4.4-2.9,6.5l-0.1-4.2C317.2,280.3,318.2,278.2,318.9,275.9"/>
						<path class="st49" d="M316,282.4l0.1,4.2c-7.6,13.3-23.6,22.1-41.2,22.7c-3.9,0.1-7.8-0.1-11.8-0.8
							c-22.2-3.9-37.4-19.9-38-37.9l-0.1-4.2c0.6,18,15.8,34,38,37.9c4,0.7,7.9,0.9,11.8,0.8C292.4,304.5,308.4,295.7,316,282.4"/>
					</g>
				</g>
			</g>
		</g>
	</g>
	<g id="font">
		<g>
			<path class="st47" d="M120.1,260.6l-1.5-0.4l0.7-2.6l-4.4-1.1l0.3-1l5.8-5.1l1.8,0.5l-1.7,6l1.3,0.3l-0.3,1.1l-1.3-0.3
				L120.1,260.6z M116.8,255.8l2.8,0.7l0.8-2.9c0.2-0.6,0.3-1.1,0.5-1.7l-0.1,0c-0.5,0.5-0.9,0.9-1.3,1.4L116.8,255.8L116.8,255.8z"
				/>
			<path class="st47" d="M122.8,260.3c0.2-0.6,0.7-0.9,1.3-0.8c0.6,0.2,0.9,0.7,0.7,1.3c-0.2,0.6-0.7,0.9-1.3,0.8
				C122.9,261.5,122.6,260.9,122.8,260.3z"/>
			<path class="st47" d="M128.6,262.8l2.3-8.3l0,0l-2,0.5l-0.1-1.2l2.7-0.6l1.4,0.3l-2.7,9.7L128.6,262.8z"/>
		</g>
		<g>
			<path class="st47" d="M136,219.8c1.1,0.5,1.9,1.7,1.5,3c-0.4,1.6-2.1,2.6-4.5,2c-1.1-0.3-2-0.8-2.4-1.3l0.7-1
				c0.3,0.3,1,0.9,1.9,1.1c1.5,0.4,2.3-0.4,2.6-1.2c0.3-1.3-0.6-2.1-1.9-2.4l-0.7-0.2l0.3-1.1l0.7,0.2c0.9,0.2,2.2,0,2.5-1
				c0.2-0.8-0.1-1.5-1.3-1.8c-0.7-0.2-1.5-0.1-2,0.1l-0.1-1.2c0.6-0.2,1.7-0.3,2.8,0c1.9,0.5,2.6,1.8,2.3,3.1
				C138.2,219,137.3,219.6,136,219.8L136,219.8z"/>
		</g>
		<g>
			<path class="st47" d="M318.6,156.2l2.3-8.4l0,0l-2,0.6l-0.1-1.2l2.6-0.7l1.3,0.2l-2.7,9.7L318.6,156.2z"/>
			<path class="st47" d="M323.8,156.3c0.2-0.6,0.7-1,1.3-0.8c0.6,0.1,0.9,0.6,0.7,1.2c-0.2,0.6-0.7,0.9-1.3,0.8
				C323.9,157.4,323.6,156.9,323.8,156.3z"/>
			<path class="st47" d="M329.5,158.3l2.3-8.4l0,0l-2,0.6l-0.1-1.2l2.6-0.7l1.3,0.3l-2.7,9.7L329.5,158.3z"/>
		</g>
		<g>
			<path class="st47" d="M415.5,314.9l6.3,1.7l-0.3,0.9l-6.6,7.7l-1.6-0.4l6.5-7.3l0,0l-4.6-1.2L415.5,314.9z"/>
			<path class="st47" d="M420.7,325.8c0.2-0.6,0.7-0.9,1.3-0.8c0.6,0.2,0.9,0.7,0.7,1.3c-0.2,0.6-0.7,0.9-1.3,0.7
				C420.8,326.9,420.5,326.4,420.7,325.8z"/>
			<path class="st47" d="M426.5,328.3l2.4-8.3l0,0l-2,0.4l0-1.2l2.7-0.6l1.4,0.4l-2.8,9.7L426.5,328.3z"/>
		</g>
		<g>
			<path class="st47" d="M378.4,300.6l6.3,1.5l-0.2,0.9l-6.5,7.8l-1.6-0.4l6.4-7.5l0,0l-4.7-1.1L378.4,300.6z"/>
			<path class="st47" d="M383.9,311.3c0.2-0.6,0.7-0.9,1.3-0.8c0.6,0.1,0.9,0.7,0.8,1.3c-0.2,0.6-0.7,0.9-1.3,0.8
				C384,312.5,383.8,311.9,383.9,311.3z"/>
			<path class="st47" d="M393.2,314.6l-6.4-1.6l0.2-0.9l1.4-0.8c2.8-1.6,4.3-2.6,4.7-4.1c0.2-0.9,0-1.9-1.3-2.2
				c-0.8-0.2-1.6,0-2.2,0.3l-0.2-1.2c0.8-0.3,1.9-0.5,3.1-0.2c2.1,0.5,2.7,2.1,2.3,3.6c-0.5,1.8-2.2,3-4.4,4.2l-1.1,0.6l0,0l4.2,1
				L393.2,314.6z"/>
		</g>
		<g>
			<path class="st47" d="M254.3,402c0.7-0.4,1.6-0.6,2.6-0.3c1.7,0.5,2.5,2,1.9,3.9c-0.6,1.8-2.3,3-4.4,2.4
				c-2.2-0.7-2.9-2.7-2.2-5.1c0.6-1.9,1.8-3.2,3.1-3.8c1.4-0.7,3.2-0.7,4.6-0.3l-0.4,1.2C256.6,399.1,254.9,400.6,254.3,402
				L254.3,402z M257.1,405.2c0.4-1.2,0-2.3-1.1-2.6c-0.9-0.3-2.1,0.3-2.3,1.1c-0.5,1.5-0.1,2.8,1.1,3.2
				C255.7,407.1,256.7,406.4,257.1,405.2z"/>
			<path class="st47" d="M259.2,408.3c0.2-0.6,0.8-0.9,1.4-0.7c0.6,0.2,0.9,0.7,0.7,1.3c-0.2,0.6-0.7,0.9-1.4,0.7
				S259,408.9,259.2,408.3z"/>
			<path class="st47" d="M264.9,411l2.7-8.2l0,0l-2,0.4l0-1.2l2.7-0.5l1.3,0.4l-3.1,9.6L264.9,411z"/>
		</g>
		<g>
			<path class="st47" d="M259.6,372.7c0.7-0.4,1.6-0.6,2.6-0.3c1.7,0.5,2.5,2,1.9,3.9c-0.6,1.8-2.3,3-4.4,2.4
				c-2.2-0.7-2.9-2.7-2.2-5.1c0.6-1.9,1.8-3.2,3.1-3.8c1.4-0.7,3.2-0.7,4.6-0.3l-0.4,1.2C262,369.8,260.3,371.3,259.6,372.7
				L259.6,372.7z M262.5,375.9c0.4-1.2,0-2.3-1.1-2.6c-0.9-0.3-2.1,0.3-2.3,1.1c-0.5,1.5-0.1,2.8,1.1,3.2
				C261.1,377.8,262,377.1,262.5,375.9z"/>
			<path class="st47" d="M264.6,379c0.2-0.6,0.8-0.9,1.4-0.7c0.6,0.2,0.9,0.7,0.7,1.3c-0.2,0.6-0.7,0.9-1.4,0.7
				S264.4,379.5,264.6,379z"/>
			<path class="st47" d="M273.7,382.7l-6.3-1.9l0.3-0.9l1.4-0.7c2.9-1.4,4.5-2.4,5-3.8c0.3-0.9,0.1-1.9-1.2-2.3
				c-0.8-0.2-1.6-0.1-2.2,0.2l-0.1-1.2c0.8-0.3,1.9-0.4,3.1-0.1c2.1,0.6,2.6,2.3,2.1,3.7c-0.6,1.8-2.3,2.8-4.7,4l-1.1,0.5l0,0
				l4.1,1.2L273.7,382.7z"/>
		</g>
		<g>
			<path class="st47" d="M202,385.8l-0.4,1.2l-3.6-1.1l-1.1,2.2c0.2,0,0.4,0.1,0.7,0.2c1.9,0.6,3.2,2.1,2.5,4
				c-0.6,1.8-2.6,2.8-4.8,2.2c-1-0.3-1.8-0.8-2.2-1.3l0.7-1c0.3,0.3,1,0.8,1.8,1.1c1.2,0.3,2.4-0.1,2.8-1.3c0.4-1.2-0.2-2.3-2.1-2.8
				c-0.5-0.2-0.9-0.2-1.3-0.3l2.2-4.4L202,385.8z"/>
			<path class="st47" d="M201,395.1c0.2-0.6,0.8-0.9,1.4-0.7c0.6,0.2,0.9,0.7,0.7,1.3c-0.2,0.6-0.7,0.9-1.4,0.7
				C201.1,396.3,200.9,395.7,201,395.1z"/>
			<path class="st47" d="M206.8,397.8l2.7-8.2l0,0l-2,0.4l0-1.2l2.7-0.5l1.3,0.4l-3.1,9.6L206.8,397.8z"/>
		</g>
		<g>
			<path class="st47" d="M275.4,146.8l-6.1-1.4l0.3-0.9l1.4-0.8c2.8-1.6,4.4-2.6,4.9-4.1c0.3-0.9,0.1-1.9-1.2-2.2
				c-0.8-0.2-1.6,0.1-2.2,0.3l-0.1-1.2c0.8-0.3,1.9-0.5,3-0.3c2.1,0.5,2.6,2,2.1,3.5c-0.6,1.8-2.3,2.9-4.6,4.2l-1.1,0.6l0,0l4.1,1
				L275.4,146.8z"/>
			<path class="st47" d="M277.2,146.3c0.2-0.6,0.8-0.9,1.3-0.8c0.6,0.1,0.9,0.7,0.7,1.3c-0.2,0.6-0.7,0.9-1.3,0.8
				C277.3,147.4,277.1,146.8,277.2,146.3z"/>
			<path class="st47" d="M282.9,148.5l2.6-8.3l0,0l-2,0.5l0-1.2l2.6-0.6l1.3,0.3l-3.1,9.6L282.9,148.5z"/>
		</g>
		<g>
			<path class="st47" d="M426.3,273.9c-0.9-0.8-1.2-1.7-0.9-2.6c0.4-1.5,2.1-2.2,3.8-1.8c2,0.5,2.6,2,2.2,3.2
				c-0.2,0.8-1,1.6-2.2,1.8l0,0c1,0.8,1.6,1.8,1.2,3c-0.5,1.7-2.2,2.4-4.2,1.9c-2.1-0.6-2.9-2.1-2.6-3.5
				C424,274.8,425.1,274.2,426.3,273.9L426.3,273.9z M428.8,277.3c0.3-1.1-0.3-1.9-1.3-2.5c-1.1,0.1-1.9,0.7-2.1,1.5
				c-0.3,1,0.2,1.9,1.2,2.2C427.7,278.8,428.5,278.2,428.8,277.3z M426.9,271.7c-0.3,0.9,0.3,1.6,1.2,2.2c0.8-0.1,1.6-0.6,1.8-1.3
				c0.2-0.8,0-1.6-1-1.9C427.8,270.3,427.1,270.9,426.9,271.7z"/>
			<path class="st47" d="M431.2,279.8c0.2-0.6,0.7-0.9,1.3-0.8c0.6,0.2,0.9,0.7,0.7,1.3c-0.2,0.6-0.7,0.9-1.3,0.7
				C431.3,280.9,431.1,280.3,431.2,279.8z"/>
			<path class="st47" d="M437.1,282.3l2.4-8.3l0,0l-2,0.4l0-1.2l2.7-0.6l1.4,0.4l-2.8,9.7L437.1,282.3z"/>
		</g>
		<g>
			<path class="st47" d="M389.9,261c-0.9-0.8-1.2-1.7-1-2.6c0.4-1.6,2-2.3,3.8-1.8c2,0.5,2.6,1.9,2.3,3.1c-0.2,0.8-0.9,1.6-2.2,1.9
				l0,0c1,0.7,1.6,1.8,1.3,3c-0.4,1.7-2.2,2.5-4.2,2c-2.1-0.5-3-2.1-2.6-3.4C387.6,262,388.7,261.3,389.9,261L389.9,261z
				 M392.4,264.4c0.3-1.1-0.3-1.9-1.4-2.5c-1.1,0.1-1.9,0.7-2.1,1.6c-0.3,1,0.2,1.9,1.3,2.2C391.4,265.9,392.2,265.3,392.4,264.4z
				 M390.5,258.8c-0.2,0.9,0.3,1.6,1.2,2.1c0.8-0.1,1.5-0.6,1.7-1.4c0.2-0.8,0-1.6-1.1-1.9C391.4,257.4,390.7,258,390.5,258.8z"/>
			<path class="st47" d="M394.9,266.8c0.2-0.6,0.7-0.9,1.3-0.8c0.6,0.1,0.9,0.7,0.8,1.3c-0.2,0.6-0.7,0.9-1.3,0.8
				C395.1,267.9,394.8,267.4,394.9,266.8z"/>
			<path class="st47" d="M404.3,270l-6.4-1.6l0.2-0.9l1.4-0.8c2.8-1.6,4.3-2.6,4.7-4.1c0.2-0.9,0-1.9-1.3-2.2
				c-0.8-0.2-1.6,0-2.2,0.3l-0.2-1.2c0.8-0.3,1.9-0.5,3.1-0.2c2.1,0.5,2.7,2.1,2.3,3.6c-0.5,1.8-2.2,3-4.4,4.2l-1.1,0.6l0,0l4.2,1
				L404.3,270z"/>
		</g>
	</g>
	<g class="st25">
		<polygon class="st56" points="312.2,120.8 350.1,127.3 335.1,182.9 323.1,190.9 294.1,185.5 		"/>
	</g>
	<g class="st25">
		<polygon class="st56" points="265.3,112.5 302.5,119.1 284.6,183.7 256,178.3 249.7,167.1 		"/>
	</g>
	<g class="st25">
		<polygon class="st57" points="162.4,166.6 182.3,156.4 173.4,144.3 153.6,154.5 		"/>
		<polygon class="st57" points="174.6,143.7 183.5,155.7 203.4,145.5 194.4,133.5 		"/>
	</g>
</g>
<g>
	<path class="st47" d="M272.8,128.7l-6.3-1.3l0.2-1l1.3-0.9c2.6-1.8,4.1-3,4.4-4.5c0.2-1-0.1-2-1.4-2.2c-0.8-0.2-1.6,0.1-2.2,0.4
		l-0.3-1.2c0.7-0.4,1.8-0.6,3-0.4c2.1,0.4,2.8,2.1,2.5,3.6c-0.4,1.9-2,3.2-4.1,4.7l-1,0.7l0,0l4.2,0.8L272.8,128.7z"/>
	<path class="st47" d="M274.6,128.1c0.1-0.6,0.7-1,1.2-0.9c0.6,0.1,0.9,0.7,0.8,1.3c-0.1,0.6-0.6,1-1.2,0.9S274.5,128.7,274.6,128.1
		z"/>
	<path class="st47" d="M283.9,130.9l-6.3-1.3l0.2-1l1.3-0.9c2.6-1.8,4.1-3,4.4-4.5c0.2-1-0.1-2-1.4-2.2c-0.8-0.2-1.6,0.1-2.2,0.4
		l-0.3-1.2c0.7-0.4,1.8-0.6,3-0.4c2.1,0.4,2.8,2.1,2.5,3.6c-0.4,1.9-2,3.2-4.1,4.7l-1,0.7l0,0l4.2,0.8L283.9,130.9z"/>
</g>
<g>
	<path class="st47" d="M315.1,135.9l2-8.8l0,0l-2,0.6l-0.1-1.2l2.6-0.7l1.3,0.3l-2.4,10.3L315.1,135.9z"/>
	<path class="st47" d="M320.3,136.1c0.1-0.6,0.7-1,1.3-0.9c0.6,0.1,0.9,0.7,0.8,1.3c-0.1,0.6-0.6,1-1.3,0.8
		C320.4,137.3,320.1,136.7,320.3,136.1z"/>
	<path class="st47" d="M329.5,139.2l-6.2-1.4l0.2-1l1.3-0.9c2.7-1.7,4.2-2.9,4.6-4.4c0.2-1,0-2-1.3-2.3c-0.8-0.2-1.6,0.1-2.2,0.3
		l-0.2-1.2c0.7-0.4,1.8-0.6,3-0.3c2.1,0.5,2.7,2.1,2.4,3.7c-0.4,1.9-2.1,3.2-4.3,4.5l-1,0.7l0,0l4.1,1L329.5,139.2z"/>
</g>
</svg>
